bicep_curl
version=1
nRows=485
nColumns=3
inDegrees=yes

# SIMM Motion File Header:
name bicep_curl
datacolumns 3
datarows 485
otherdata 1
range 0.0000 0.4840
endheader
time	/jointset/r_shoulder/r_shoulder_elev/value	/jointset/r_elbow/r_elbow_flex/value
0.0000	0.0000	90.0200
0.0010	0.0000	90.0899
0.0020	0.0000	90.1596
0.0030	0.0000	90.2292
0.0040	0.0000	90.2988
0.0050	0.0000	90.3682
0.0060	0.0000	90.4375
0.0070	0.0000	90.5067
0.0080	0.0000	90.5758
0.0090	0.0000	90.6448
0.0100	0.0000	90.7136
0.0110	0.0000	90.7824
0.0120	0.0000	90.8511
0.0130	0.0000	90.9196
0.0140	0.0000	90.9880
0.0150	0.0000	91.0564
0.0160	0.0000	91.1246
0.0170	0.0000	91.1927
0.0180	0.0000	91.2607
0.0190	0.0000	91.3286
0.0200	0.0000	91.3964
0.0210	0.0000	91.4640
0.0220	0.0000	91.5316
0.0230	0.0000	91.5991
0.0240	0.0000	91.6664
0.0250	0.0000	91.7337
0.0260	0.0000	91.8008
0.0270	0.0000	91.8678
0.0280	0.0000	91.9347
0.0290	0.0000	92.0015
0.0300	0.0000	92.0682
0.0310	0.0000	92.1348
0.0320	0.0000	92.2013
0.0330	0.0000	92.2676
0.0340	0.0000	92.3339
0.0350	0.0000	92.4000
0.0360	0.0000	92.4661
0.0370	0.0000	92.5320
0.0380	0.0000	92.5978
0.0390	0.0000	92.6635
0.0400	0.0000	92.7291
0.0410	0.0000	92.7946
0.0420	0.0000	92.8600
0.0430	0.0000	92.9253
0.0440	0.0000	92.9905
0.0450	0.0000	93.0555
0.0460	0.0000	93.1205
0.0470	0.0000	93.1853
0.0480	0.0000	93.2500
0.0490	0.0000	93.3147
0.0500	0.0000	93.3792
0.0510	0.0000	93.4436
0.0520	0.0000	93.5079
0.0530	0.0000	93.5721
0.0540	0.0000	93.6361
0.0550	0.0000	93.7001
0.0560	0.0000	93.7640
0.0570	0.0000	93.8277
0.0580	0.0000	93.8913
0.0590	0.0000	93.9549
0.0600	0.0000	94.0183
0.0610	0.0000	94.0816
0.0620	0.0000	94.1448
0.0630	0.0000	94.2079
0.0640	0.0000	94.2709
0.0650	0.0000	94.3338
0.0660	0.0000	94.3965
0.0670	0.0000	94.4592
0.0680	0.0000	94.5217
0.0690	0.0000	94.5842
0.0700	0.0000	94.6465
0.0710	0.0000	94.7087
0.0720	0.0000	94.7709
0.0730	0.0000	94.8329
0.0740	0.0000	94.8948
0.0750	0.0000	94.9565
0.0760	0.0000	95.0182
0.0770	0.0000	95.0798
0.0780	0.0000	95.1413
0.0790	0.0000	95.2026
0.0800	0.0000	95.2638
0.0810	0.0000	95.3250
0.0820	0.0000	95.3860
0.0830	0.0000	95.4469
0.0840	0.0000	95.5077
0.0850	0.0000	95.5684
0.0860	0.0000	95.6290
0.0870	0.0000	95.6895
0.0880	0.0000	95.7499
0.0890	0.0000	95.8101
0.0900	0.0000	95.8703
0.0910	0.0000	95.9303
0.0920	0.0000	95.9902
0.0930	0.0000	96.0501
0.0940	0.0000	96.1098
0.0950	0.0000	96.1694
0.0960	0.0000	96.2289
0.0970	0.0000	96.2883
0.0980	0.0000	96.3476
0.0990	0.0000	96.4067
0.1000	0.0000	96.4658
0.1010	0.0000	96.5247
0.1020	0.0000	96.5836
0.1030	0.0000	96.6423
0.1040	0.0000	96.7009
0.1050	0.0000	96.7595
0.1060	0.0000	96.8179
0.1070	0.0000	96.8762
0.1080	0.0000	96.9344
0.1090	0.0000	96.9924
0.1100	0.0000	97.0504
0.1110	0.0000	97.1083
0.1120	0.0000	97.1660
0.1130	0.0000	97.2237
0.1140	0.0000	97.2812
0.1150	0.0000	97.3386
0.1160	0.0000	97.3959
0.1170	0.0000	97.4532
0.1180	0.0000	97.5103
0.1190	0.0000	97.5672
0.1200	0.0000	97.6241
0.1210	0.0000	97.6809
0.1220	0.0000	97.7376
0.1230	0.0000	97.7941
0.1240	0.0000	97.8506
0.1250	0.0000	97.9069
0.1260	0.0000	97.9631
0.1270	0.0000	98.0192
0.1280	0.0000	98.0753
0.1290	0.0000	98.1312
0.1300	0.0000	98.1869
0.1310	0.0000	98.2426
0.1320	0.0000	98.2982
0.1330	0.0000	98.3537
0.1340	0.0000	98.4090
0.1350	0.0000	98.4643
0.1360	0.0000	98.5194
0.1370	0.0000	98.5744
0.1380	0.0000	98.6293
0.1390	0.0000	98.6842
0.1400	0.0000	98.7389
0.1410	0.0000	98.7934
0.1420	0.0000	98.8479
0.1430	0.0000	98.9023
0.1440	0.0000	98.9566
0.1450	0.0000	99.0107
0.1460	0.0000	99.0648
0.1470	0.0000	99.1187
0.1480	0.0000	99.1725
0.1490	0.0000	99.2263
0.1500	0.0000	99.2799
0.1510	0.0000	99.3334
0.1520	0.0000	99.3868
0.1530	0.0000	99.4400
0.1540	0.0000	99.4932
0.1550	0.0000	99.5463
0.1560	0.0000	99.5992
0.1570	0.0000	99.6521
0.1580	0.0000	99.7048
0.1590	0.0000	99.7575
0.1600	0.0000	99.8100
0.1610	0.0000	99.8624
0.1620	0.0000	99.9147
0.1630	0.0000	99.9669
0.1640	0.0000	100.0190
0.1650	0.0000	100.0709
0.1660	0.0000	100.1228
0.1670	0.0000	100.1746
0.1680	0.0000	100.2262
0.1690	0.0000	100.2778
0.1700	0.0000	100.3292
0.1710	0.0000	100.3805
0.1720	0.0000	100.4317
0.1730	0.0000	100.4828
0.1740	0.0000	100.5338
0.1750	0.0000	100.5847
0.1760	0.0000	100.6355
0.1770	0.0000	100.6861
0.1780	0.0000	100.7367
0.1790	0.0000	100.7872
0.1800	0.0000	100.8375
0.1810	0.0000	100.8877
0.1820	0.0000	100.9378
0.1830	0.0000	100.9879
0.1840	0.0000	101.0378
0.1850	0.0000	101.0876
0.1860	0.0000	101.1372
0.1870	0.0000	101.1868
0.1880	0.0000	101.2363
0.1890	0.0000	101.2857
0.1900	0.0000	101.3349
0.1910	0.0000	101.3840
0.1920	0.0000	101.4331
0.1930	0.0000	101.4820
0.1940	0.0000	101.5308
0.1950	0.0000	101.5795
0.1960	0.0000	101.6281
0.1970	0.0000	101.6766
0.1980	0.0000	101.7250
0.1990	0.0000	101.7732
0.2000	0.0000	101.8214
0.2010	0.0000	101.8695
0.2020	0.0000	101.9174
0.2030	0.0000	101.9652
0.2040	0.0000	102.0130
0.2050	0.0000	102.0606
0.2060	0.0000	102.1081
0.2070	0.0000	102.1555
0.2080	0.0000	102.2028
0.2090	0.0000	102.2499
0.2100	0.0000	102.2970
0.2110	0.0000	102.3440
0.2120	0.0000	102.3908
0.2130	0.0000	102.4376
0.2140	0.0000	102.4842
0.2150	0.0000	102.5307
0.2160	0.0000	102.5771
0.2170	0.0000	102.6234
0.2180	0.0000	102.6696
0.2190	0.0000	102.7157
0.2200	0.0000	102.7617
0.2210	0.0000	102.8076
0.2220	0.0000	102.8533
0.2230	0.0000	102.8990
0.2240	0.0000	102.9445
0.2250	0.0000	102.9900
0.2260	0.0000	103.0353
0.2270	0.0000	103.0805
0.2280	0.0000	103.1256
0.2290	0.0000	103.1706
0.2300	0.0000	103.2155
0.2310	0.0000	103.2603
0.2320	0.0000	103.3050
0.2330	0.0000	103.3495
0.2340	0.0000	103.3940
0.2350	0.0000	103.4383
0.2360	0.0000	103.4826
0.2370	0.0000	103.5267
0.2380	0.0000	103.5707
0.2390	0.0000	103.6146
0.2400	0.0000	103.6584
0.2410	0.0000	103.7021
0.2420	0.0000	103.7457
0.2430	0.0000	103.7891
0.2440	0.0000	103.8325
0.2450	0.0000	103.8758
0.2460	0.0000	103.9189
0.2470	0.0000	103.9619
0.2480	0.0000	104.0049
0.2490	0.0000	104.0477
0.2500	0.0000	104.0904
0.2510	0.0000	104.1330
0.2520	0.0000	104.1755
0.2530	0.0000	104.2179
0.2540	0.0000	104.2601
0.2550	0.0000	104.3023
0.2560	0.0000	104.3444
0.2570	0.0000	104.3863
0.2580	0.0000	104.4281
0.2590	0.0000	104.4699
0.2600	0.0000	104.5115
0.2610	0.0000	104.5530
0.2620	0.0000	104.5944
0.2630	0.0000	104.6357
0.2640	0.0000	104.6769
0.2650	0.0000	104.7179
0.2660	0.0000	104.7589
0.2670	0.0000	104.7998
0.2680	0.0000	104.8405
0.2690	0.0000	104.8812
0.2700	0.0000	104.9217
0.2710	0.0000	104.9621
0.2720	0.0000	105.0024
0.2730	0.0000	105.0426
0.2740	0.0000	105.0827
0.2750	0.0000	105.1227
0.2760	0.0000	105.1626
0.2770	0.0000	105.2023
0.2780	0.0000	105.2420
0.2790	0.0000	105.2815
0.2800	0.0000	105.3210
0.2810	0.0000	105.3603
0.2820	0.0000	105.3995
0.2830	0.0000	105.4386
0.2840	0.0000	105.4776
0.2850	0.0000	105.5165
0.2860	0.0000	105.5553
0.2870	0.0000	105.5940
0.2880	0.0000	105.6326
0.2890	0.0000	105.6710
0.2900	0.0000	105.7094
0.2910	0.0000	105.7476
0.2920	0.0000	105.7857
0.2930	0.0000	105.8237
0.2940	0.0000	105.8617
0.2950	0.0000	105.8995
0.2960	0.0000	105.9372
0.2970	0.0000	105.9747
0.2980	0.0000	106.0122
0.2990	0.0000	106.0496
0.3000	0.0000	106.0868
0.3010	0.0000	106.1240
0.3020	0.0000	106.1610
0.3030	0.0000	106.1980
0.3040	0.0000	106.2348
0.3050	0.0000	106.2715
0.3060	0.0000	106.3081
0.3070	0.0000	106.3446
0.3080	0.0000	106.3810
0.3090	0.0000	106.4173
0.3100	0.0000	106.4534
0.3110	0.0000	106.4895
0.3120	0.0000	106.5254
0.3130	0.0000	106.5613
0.3140	0.0000	106.5970
0.3150	0.0000	106.6326
0.3160	0.0000	106.6681
0.3170	0.0000	106.7036
0.3180	0.0000	106.7388
0.3190	0.0000	106.7740
0.3200	0.0000	106.8091
0.3210	0.0000	106.8441
0.3220	0.0000	106.8789
0.3230	0.0000	106.9137
0.3240	0.0000	106.9483
0.3250	0.0000	106.9829
0.3260	0.0000	107.0173
0.3270	0.0000	107.0516
0.3280	0.0000	107.0858
0.3290	0.0000	107.1199
0.3300	0.0000	107.1539
0.3310	0.0000	107.1878
0.3320	0.0000	107.2215
0.3330	0.0000	107.2552
0.3340	0.0000	107.2888
0.3350	0.0000	107.3222
0.3360	0.0000	107.3555
0.3370	0.0000	107.3888
0.3380	0.0000	107.4219
0.3390	0.0000	107.4549
0.3400	0.0000	107.4878
0.3410	0.0000	107.5206
0.3420	0.0000	107.5532
0.3430	0.0000	107.5858
0.3440	0.0000	107.6183
0.3450	0.0000	107.6506
0.3460	0.0000	107.6829
0.3470	0.0000	107.7150
0.3480	0.0000	107.7470
0.3490	0.0000	107.7789
0.3500	0.0000	107.8107
0.3510	0.0000	107.8424
0.3520	0.0000	107.8740
0.3530	0.0000	107.9055
0.3540	0.0000	107.9369
0.3550	0.0000	107.9681
0.3560	0.0000	107.9993
0.3570	0.0000	108.0303
0.3580	0.0000	108.0613
0.3590	0.0000	108.0921
0.3600	0.0000	108.1228
0.3610	0.0000	108.1534
0.3620	0.0000	108.1839
0.3630	0.0000	108.2143
0.3640	0.0000	108.2446
0.3650	0.0000	108.2748
0.3660	0.0000	108.3048
0.3670	0.0000	108.3348
0.3680	0.0000	108.3646
0.3690	0.0000	108.3944
0.3700	0.0000	108.4240
0.3710	0.0000	108.4535
0.3720	0.0000	108.4829
0.3730	0.0000	108.5122
0.3740	0.0000	108.5414
0.3750	0.0000	108.5705
0.3760	0.0000	108.5995
0.3770	0.0000	108.6283
0.3780	0.0000	108.6571
0.3790	0.0000	108.6857
0.3800	0.0000	108.7143
0.3810	0.0000	108.7427
0.3820	0.0000	108.7710
0.3830	0.0000	108.7992
0.3840	0.0000	108.8273
0.3850	0.0000	108.8553
0.3860	0.0000	108.8832
0.3870	0.0000	108.9110
0.3880	0.0000	108.9386
0.3890	0.0000	108.9662
0.3900	0.0000	108.9936
0.3910	0.0000	109.0210
0.3920	0.0000	109.0482
0.3930	0.0000	109.0753
0.3940	0.0000	109.1023
0.3950	0.0000	109.1292
0.3960	0.0000	109.1560
0.3970	0.0000	109.1827
0.3980	0.0000	109.2093
0.3990	0.0000	109.2358
0.4000	0.0000	109.2621
0.4010	0.0000	109.2884
0.4020	0.0000	109.3145
0.4030	0.0000	109.3405
0.4040	0.0000	109.3664
0.4050	0.0000	109.3923
0.4060	0.0000	109.4180
0.4070	0.0000	109.4435
0.4080	0.0000	109.4690
0.4090	0.0000	109.4944
0.4100	0.0000	109.5197
0.4110	0.0000	109.5448
0.4120	0.0000	109.5699
0.4130	0.0000	109.5948
0.4140	0.0000	109.6196
0.4150	0.0000	109.6444
0.4160	0.0000	109.6690
0.4170	0.0000	109.6935
0.4180	0.0000	109.7179
0.4190	0.0000	109.7422
0.4200	0.0000	109.7663
0.4210	0.0000	109.7904
0.4220	0.0000	109.8144
0.4230	0.0000	109.8382
0.4240	0.0000	109.8620
0.4250	0.0000	109.8856
0.4260	0.0000	109.9091
0.4270	0.0000	109.9325
0.4280	0.0000	109.9558
0.4290	0.0000	109.9790
0.4300	0.0000	110.0021
0.4310	0.0000	110.0251
0.4320	0.0000	110.0479
0.4330	0.0000	110.0707
0.4340	0.0000	110.0934
0.4350	0.0000	110.1159
0.4360	0.0000	110.1383
0.4370	0.0000	110.1607
0.4380	0.0000	110.1829
0.4390	0.0000	110.2050
0.4400	0.0000	110.2270
0.4410	0.0000	110.2489
0.4420	0.0000	110.2706
0.4430	0.0000	110.2923
0.4440	0.0000	110.3139
0.4450	0.0000	110.3353
0.4460	0.0000	110.3566
0.4470	0.0000	110.3779
0.4480	0.0000	110.3990
0.4490	0.0000	110.4200
0.4500	0.0000	110.4409
0.4510	0.0000	110.4617
0.4520	0.0000	110.4824
0.4530	0.0000	110.5030
0.4540	0.0000	110.5235
0.4550	0.0000	110.5438
0.4560	0.0000	110.5641
0.4570	0.0000	110.5842
0.4580	0.0000	110.6042
0.4590	0.0000	110.6242
0.4600	0.0000	110.6440
0.4610	0.0000	110.6637
0.4620	0.0000	110.6833
0.4630	0.0000	110.7028
0.4640	0.0000	110.7222
0.4650	0.0000	110.7414
0.4660	0.0000	110.7606
0.4670	0.0000	110.7796
0.4680	0.0000	110.7986
0.4690	0.0000	110.8174
0.4700	0.0000	110.8361
0.4710	0.0000	110.8548
0.4720	0.0000	110.8733
0.4730	0.0000	110.8917
0.4740	0.0000	110.9099
0.4750	0.0000	110.9281
0.4760	0.0000	110.9462
0.4770	0.0000	110.9642
0.4780	0.0000	110.9820
0.4790	0.0000	110.9998
0.4800	0.0000	111.0174
0.4810	0.0000	111.0349
0.4820	0.0000	111.0523
0.4830	0.0000	111.0696
0.4840	0.0000	111.0868
